<svg width="196" height="90" viewBox="0 0 196 90" fill="none" xmlns="http://www.w3.org/2000/svg">
<path d="M176.87 57.25L160.43 73.61L143.98 57.25L127.54 73.61L111.1 57.25L96.6 71.68L82.09 57.25L65.65 73.61L49.2 57.25L32.76 73.61L16.32 57.25L0 73.49L1.82 75.31L16.32 60.88L32.76 77.24L49.2 60.88L65.65 77.24L82.09 60.88L96.6 75.32L111.1 60.88L127.54 77.24L143.98 60.88L160.43 77.24L176.87 60.88L191.38 75.31L193.19 73.49L176.87 57.25Z" fill="#0B315E"/>
<path d="M176.871 28L160.431 44.36L143.981 28L127.541 44.36L111.101 28L98.0609 40.98L98.0508 44.62L111.101 31.63L127.541 47.99L143.981 31.63L160.431 47.99L176.871 31.63L191.381 46.06L193.191 44.23L176.871 28Z" fill="#FF9D00"/>
<path d="M45.5691 15.6947L69.3182 27.8493L45.3498 39.5656L45.5691 15.6947Z" stroke="#0B315E" stroke-width="4"/>
<path d="M39.2168 28.2438L24.7965 35.2909L24.9284 20.9328L39.2168 28.2438Z" fill="#FFC200"/>
</svg>
