<svg width="195" height="178" viewBox="0 0 195 178" fill="none" xmlns="http://www.w3.org/2000/svg">
<path d="M127.793 135.414V123V135.414ZM121.586 129.207H134H121.586Z" stroke="#1D262D" stroke-width="2" stroke-miterlimit="10"/>
<path d="M127.852 165.414V153V165.414ZM121.645 159.207H134.059H121.645Z" stroke="#1D262D" stroke-width="2" stroke-miterlimit="10"/>
<path d="M184.852 75.4136V63V75.4136ZM178.645 69.2068H191.059H178.645Z" stroke="#1D262D" stroke-width="2" stroke-miterlimit="10"/>
<path d="M184.559 45.4136V33V45.4136ZM178.352 39.2068H190.766H178.352Z" stroke="#1D262D" stroke-width="2" stroke-miterlimit="10"/>
<path d="M184.559 15.4136V3V15.4136ZM178.352 9.2068H190.766H178.352Z" stroke="#1D262D" stroke-width="2" stroke-miterlimit="10"/>
<path d="M127.793 105.414V93V105.414ZM121.586 99.2068H134H121.586Z" stroke="#1D262D" stroke-width="2" stroke-miterlimit="10"/>
<path d="M127.793 75.4136V63V75.4136ZM121.586 69.2068H134H121.586Z" stroke="#1D262D" stroke-width="2" stroke-miterlimit="10"/>
<path d="M127.5 45.4136V33V45.4136ZM121.293 39.2068H133.707H121.293Z" stroke="#1D262D" stroke-width="2" stroke-miterlimit="10"/>
<path d="M127.5 15.4136V3V15.4136ZM121.293 9.2068H133.707H121.293Z" stroke="#1D262D" stroke-width="2" stroke-miterlimit="10"/>
<path d="M99.1481 135.414V123V135.414ZM92.9414 129.207H105.355H92.9414Z" stroke="#1D262D" stroke-width="2" stroke-miterlimit="10"/>
<path d="M99.2067 165.414V153V165.414ZM93 159.207H105.413H93Z" stroke="#1D262D" stroke-width="2" stroke-miterlimit="10"/>
<path d="M156.207 75.4136V63V75.4136ZM150 69.2068H162.413H150Z" stroke="#1D262D" stroke-width="2" stroke-miterlimit="10"/>
<path d="M155.914 45.4136V33V45.4136ZM149.707 39.2068H162.121H149.707Z" stroke="#1D262D" stroke-width="2" stroke-miterlimit="10"/>
<path d="M155.914 15.4136V3V15.4136ZM149.707 9.2068H162.121H149.707Z" stroke="#1D262D" stroke-width="2" stroke-miterlimit="10"/>
<path d="M99.1481 105.414V93V105.414ZM92.9414 99.2068H105.355H92.9414Z" stroke="#1D262D" stroke-width="2" stroke-miterlimit="10"/>
<path d="M99.1481 75.4136V63V75.4136ZM92.9414 69.2068H105.355H92.9414Z" stroke="#1D262D" stroke-width="2" stroke-miterlimit="10"/>
<path d="M98.8551 45.4136V33V45.4136ZM92.6484 39.2068H105.062H92.6484Z" stroke="#1D262D" stroke-width="2" stroke-miterlimit="10"/>
<path d="M98.8551 15.4136V3V15.4136ZM92.6484 9.2068H105.062H92.6484Z" stroke="#1D262D" stroke-width="2" stroke-miterlimit="10"/>
<path d="M70.4998 135.414V123V135.414ZM64.293 129.207H76.7065H64.293Z" stroke="#1D262D" stroke-width="2" stroke-miterlimit="10"/>
<path d="M70.4998 105.414V93V105.414ZM64.293 99.2068H76.7065H64.293Z" stroke="#1D262D" stroke-width="2" stroke-miterlimit="10"/>
<path d="M70.4998 75.4136V63V75.4136ZM64.293 69.2068H76.7065H64.293Z" stroke="#1D262D" stroke-width="2" stroke-miterlimit="10"/>
<path d="M70.2068 45.4136V33V45.4136ZM64 39.2068H76.4135H64Z" stroke="#1D262D" stroke-width="2" stroke-miterlimit="10"/>
<path d="M70.2068 15.4136V3V15.4136ZM64 9.2068H76.4135H64Z" stroke="#1D262D" stroke-width="2" stroke-miterlimit="10"/>
<path d="M41.8552 135.414V123V135.414ZM35.6484 129.207H48.0619H35.6484Z" stroke="#1D262D" stroke-width="2" stroke-miterlimit="10"/>
<path d="M41.8552 105.414V93V105.414ZM35.6484 99.2068H48.0619H35.6484Z" stroke="#1D262D" stroke-width="2" stroke-miterlimit="10"/>
<path d="M41.8552 75.4136V63V75.4136ZM35.6484 69.2068H48.0619H35.6484Z" stroke="#1D262D" stroke-width="2" stroke-miterlimit="10"/>
<path d="M13.2068 135.414V123V135.414ZM7 129.207H19.4135H7Z" stroke="#1D262D" stroke-width="2" stroke-miterlimit="10"/>
<path d="M13.2068 105.414V93V105.414ZM7 99.2068H19.4135H7Z" stroke="#1D262D" stroke-width="2" stroke-miterlimit="10"/>
<path d="M13.2068 75.4136V63V75.4136ZM7 69.2068H19.4135H7Z" stroke="#1D262D" stroke-width="2" stroke-miterlimit="10"/>
</svg>
