<svg width="274" height="191" viewBox="0 0 274 191" fill="none" xmlns="http://www.w3.org/2000/svg">
<circle cx="5.68" cy="185.68" r="3.18" stroke="#FFE031"/>
<circle cx="5.68" cy="170.68" r="3.18" fill="#FFE031" stroke="#FFE031"/>
<circle cx="5.68" cy="155.68" r="3.18" fill="#FFE031" stroke="#FFE031"/>
<circle cx="25.68" cy="185.68" r="3.18" fill="#FFE031" stroke="#FFE031"/>
<circle cx="25.68" cy="170.68" r="3.68" fill="#1D262D"/>
<circle cx="25.68" cy="155.68" r="3.68" fill="#FFE031"/>
<circle cx="25.68" cy="140.68" r="3.18" stroke="#FFE031"/>
<circle cx="165.68" cy="185.68" r="3.18" fill="#FFE031" stroke="#FFE031"/>
<circle cx="165.68" cy="170.68" r="3.68" fill="#1D262D"/>
<circle cx="165.68" cy="155.68" r="3.68" fill="#FFE031"/>
<circle cx="165.68" cy="140.68" r="3.18" stroke="#FFE031"/>
<circle cx="165.68" cy="125.68" r="3.68" fill="#FFE031"/>
<circle cx="165.68" cy="110.68" r="3.68" fill="#FFE031"/>
<circle cx="185.68" cy="95.68" r="3.68" fill="#FFE031"/>
<circle cx="185.68" cy="80.68" r="3.68" fill="#FFE031"/>
<circle cx="185.68" cy="65.68" r="3.68" fill="#FFE031"/>
<circle cx="185.68" cy="50.68" r="3.68" fill="#FFE031"/>
<circle cx="185.68" cy="35.68" r="3.68" fill="#FFE031"/>
<circle cx="185.68" cy="20.68" r="3.68" fill="#FFE031"/>
<circle cx="85.68" cy="185.68" r="3.18" fill="#FFE031" stroke="#FFE031"/>
<circle cx="85.68" cy="170.68" r="3.18" fill="#FFE031" stroke="#FFE031"/>
<circle cx="85.68" cy="155.68" r="3.68" fill="#1D262D"/>
<circle cx="85.68" cy="140.68" r="3.68" fill="#FFE031"/>
<circle cx="85.68" cy="125.68" r="3.68" fill="#FFE031"/>
<circle cx="85.68" cy="110.68" r="3.68" fill="#FFE032"/>
<circle cx="105.68" cy="95.68" r="3.68" fill="#1D262D"/>
<circle cx="105.68" cy="80.68" r="3.68" fill="#FFE031"/>
<circle cx="225.68" cy="185.68" r="3.18" fill="#FFE031" stroke="#FFE031"/>
<circle cx="225.68" cy="170.68" r="3.18" fill="#FFE031" stroke="#FFE031"/>
<circle cx="225.68" cy="155.68" r="3.68" fill="#1D262D"/>
<circle cx="225.68" cy="140.68" r="3.18" fill="#FFE031" stroke="#FFE031"/>
<circle cx="225.68" cy="125.68" r="3.68" fill="#FFE031"/>
<circle cx="225.68" cy="110.68" r="3.68" fill="#FFE031"/>
<circle cx="245.68" cy="95.68" r="3.68" fill="#FFE031"/>
<circle cx="245.68" cy="80.68" r="3.68" fill="#FFE031"/>
<circle cx="245.68" cy="65.68" r="3.18" stroke="#FFE031"/>
<circle cx="245.68" cy="50.68" r="3.18" fill="#FFE031" stroke="#FFE031"/>
<circle cx="245.68" cy="35.68" r="3.18" fill="#FFE031" stroke="#FFE031"/>
<circle cx="245.68" cy="20.68" r="3.18" fill="#FFE031" stroke="#FFE031"/>
<circle cx="245.68" cy="5.68" r="3.18" fill="#FFE031" stroke="#FFE031"/>
<circle cx="45.68" cy="185.68" r="3.18" fill="#FFE031" stroke="#FFE031"/>
<circle cx="45.68" cy="170.68" r="3.18" fill="#FFE031" stroke="#FFE031"/>
<circle cx="45.68" cy="155.68" r="3.18" fill="#FFE031" stroke="#FFE031"/>
<circle cx="45.68" cy="140.68" r="3.18" fill="#FFE031" stroke="#FFE031"/>
<circle cx="45.68" cy="125.68" r="3.18" fill="#FFE031" stroke="#FFE031"/>
<circle cx="185.68" cy="185.68" r="3.18" fill="#FFE031" stroke="#FFE031"/>
<circle cx="185.68" cy="170.68" r="3.18" fill="#FFE031" stroke="#FFE031"/>
<circle cx="185.68" cy="155.68" r="3.18" fill="#FFE031" stroke="#FFE031"/>
<circle cx="185.68" cy="140.68" r="3.18" fill="#FFE031" stroke="#FFE031"/>
<circle cx="185.68" cy="125.68" r="3.18" fill="#FFE031" stroke="#FFE031"/>
<circle cx="185.68" cy="110.68" r="3.18" fill="#FFE031" stroke="#FFE031"/>
<circle cx="205.68" cy="95.68" r="3.18" stroke="#FFE031"/>
<circle cx="205.68" cy="80.68" r="3.18" fill="#FFE031" stroke="#FFE031"/>
<circle cx="205.68" cy="65.68" r="3.18" fill="#FFE031" stroke="#FFE031"/>
<circle cx="205.68" cy="50.68" r="3.68" fill="#1D262D"/>
<circle cx="205.68" cy="35.68" r="3.68" fill="#FFE031"/>
<circle cx="205.68" cy="20.68" r="3.18" stroke="#FFE031"/>
<circle cx="205.68" cy="5.68" r="3.18" fill="#FFE031" stroke="#FFE031"/>
<circle cx="105.68" cy="185.68" r="3.18" fill="#FFE031" stroke="#FFE031"/>
<circle cx="105.68" cy="170.68" r="3.18" fill="#FFE031" stroke="#FFE031"/>
<circle cx="105.68" cy="155.68" r="3.18" fill="#FFE031" stroke="#FFE031"/>
<circle cx="105.68" cy="140.68" r="3.18" stroke="#FFE031"/>
<circle cx="105.68" cy="125.68" r="3.18" fill="#FFE031" stroke="#FFE031"/>
<circle cx="105.68" cy="110.68" r="3.18" fill="#FFE031" stroke="#FFE031"/>
<circle cx="125.68" cy="95.68" r="3.18" fill="#FFE031" stroke="#FFE031"/>
<circle cx="125.68" cy="80.68" r="3.18" fill="#FFE031" stroke="#FFE031"/>
<circle cx="125.68" cy="65.68" r="3.18" fill="#FFE031" stroke="#FFE031"/>
<circle cx="245.68" cy="185.68" r="3.18" fill="#FFE031" stroke="#FFE031"/>
<circle cx="245.68" cy="170.68" r="3.18" fill="#FFE031" stroke="#FFE031"/>
<circle cx="245.68" cy="155.68" r="3.18" fill="#FFE031" stroke="#FFE031"/>
<circle cx="245.68" cy="140.68" r="3.18" stroke="#FFE031"/>
<circle cx="245.68" cy="125.68" r="3.18" fill="#FFE031" stroke="#FFE031"/>
<circle cx="245.68" cy="110.68" r="3.18" fill="#FFE031" stroke="#FFE031"/>
<circle cx="265.68" cy="95.68" r="3.18" fill="#FFE031" stroke="#FFE031"/>
<circle cx="265.68" cy="80.68" r="3.18" fill="#FFE031" stroke="#FFE031"/>
<circle cx="265.68" cy="65.68" r="3.18" fill="#FFE031" stroke="#FFE031"/>
<circle cx="265.68" cy="50.68" r="3.68" fill="#1D262D"/>
<circle cx="265.68" cy="35.68" r="3.68" fill="#FFE031"/>
<circle cx="265.68" cy="20.68" r="3.68" fill="#FFE031"/>
<circle cx="265.68" cy="5.68" r="3.68" fill="#FFE031"/>
<circle cx="65.68" cy="185.68" r="3.18" fill="#FFE031" stroke="#FFE031"/>
<circle cx="65.68" cy="170.68" r="3.18" stroke="#FFE031"/>
<circle cx="65.68" cy="155.68" r="3.18" fill="#FFE031" stroke="#FFE031"/>
<circle cx="65.68" cy="140.68" r="3.18" fill="#FFE031" stroke="#FFE031"/>
<circle cx="65.68" cy="125.68" r="3.68" fill="#1D262D"/>
<circle cx="65.68" cy="110.68" r="3.18" fill="#FFE031" stroke="#FFE031"/>
<circle cx="85.68" cy="95.68" r="3.18" fill="#FFE031" stroke="#FFE031"/>
<circle cx="205.68" cy="185.68" r="3.18" fill="#FFE031" stroke="#FFE031"/>
<circle cx="205.68" cy="170.68" r="3.18" stroke="#FFE031"/>
<circle cx="205.68" cy="155.68" r="3.18" fill="#FFE031" stroke="#FFE031"/>
<circle cx="205.68" cy="140.68" r="3.18" fill="#FFE031" stroke="#FFE031"/>
<circle cx="205.68" cy="125.68" r="3.68" fill="#1D262D"/>
<circle cx="205.68" cy="110.68" r="3.18" fill="#FFE031" stroke="#FFE031"/>
<circle cx="225.68" cy="95.68" r="3.18" fill="#FFE031" stroke="#FFE031"/>
<circle cx="225.68" cy="80.68" r="3.68" fill="#1D262D"/>
<circle cx="225.68" cy="65.68" r="3.68" fill="#FFE031"/>
<circle cx="225.68" cy="50.68" r="3.68" fill="#FFE031"/>
<circle cx="225.68" cy="35.68" r="3.68" fill="#FFE031"/>
<circle cx="225.68" cy="20.68" r="3.68" fill="#FFE031"/>
<circle cx="225.68" cy="5.68" r="3.68" fill="#1D262D"/>
<circle cx="125.68" cy="185.68" r="3.18" fill="#FFE031" stroke="#FFE031"/>
<circle cx="125.68" cy="170.68" r="3.18" fill="#FFE031" stroke="#FFE031"/>
<circle cx="125.68" cy="155.68" r="3.18" fill="#FFE031" stroke="#FFE031"/>
<circle cx="125.68" cy="140.68" r="3.18" fill="#FFE031" stroke="#FFE031"/>
<circle cx="125.68" cy="125.68" r="3.68" fill="#1D262D"/>
<circle cx="125.68" cy="110.68" r="3.18" stroke="#FFE031"/>
<circle cx="145.68" cy="95.68" r="3.18" fill="#FFE031" stroke="#FFE031"/>
<circle cx="145.68" cy="80.68" r="3.18" fill="#FFE031" stroke="#FFE031"/>
<circle cx="145.68" cy="65.68" r="3.18" fill="#FFE031" stroke="#FFE031"/>
<circle cx="145.68" cy="50.68" r="3.18" fill="#FFE031" stroke="#FFE031"/>
<circle cx="265.68" cy="185.68" r="3.18" fill="#FFE031" stroke="#FFE031"/>
<circle cx="265.68" cy="170.68" r="3.18" fill="#FFE031" stroke="#FFE031"/>
<circle cx="265.68" cy="155.68" r="3.18" fill="#FFE031" stroke="#FFE031"/>
<circle cx="265.68" cy="140.68" r="3.18" fill="#FFE031" stroke="#FFE031"/>
<circle cx="265.68" cy="125.68" r="3.68" fill="#1D262D"/>
<circle cx="265.68" cy="110.68" r="3.18" fill="#FFE031" stroke="#FFE031"/>
<circle cx="145.68" cy="185.68" r="3.18" stroke="#FFE031"/>
<circle cx="145.68" cy="170.68" r="3.18" fill="#FFE031" stroke="#FFE031"/>
<circle cx="145.68" cy="155.68" r="3.18" fill="#FFE031" stroke="#FFE031"/>
<circle cx="145.68" cy="140.68" r="3.18" fill="#FFE031" stroke="#FFE031"/>
<circle cx="145.68" cy="125.68" r="3.18" fill="#FFE031" stroke="#FFE031"/>
<circle cx="145.68" cy="110.68" r="3.18" stroke="#FFE031"/>
<circle cx="165.68" cy="95.68" r="3.68" fill="#1D262D"/>
<circle cx="165.68" cy="80.68" r="3.68" fill="#FFE031"/>
<circle cx="165.68" cy="65.68" r="3.18" stroke="#FFE031"/>
<circle cx="165.68" cy="50.68" r="3.68" fill="#FFE031"/>
<circle cx="165.68" cy="35.68" r="3.68" fill="#FFE031"/>
</svg>
