<svg width="283" height="283" viewBox="0 0 283 283" fill="none" xmlns="http://www.w3.org/2000/svg">
<path d="M117.228 282.989C72.9486 282.989 31.3168 265.741 0 234.435L1.49938 232.936C65.3134 296.75 169.132 296.75 232.946 232.936C263.859 202.023 280.884 160.923 280.884 117.218C280.884 73.5122 263.859 32.4015 232.946 1.49938L234.446 0C265.762 31.3168 283 72.9486 283 117.228C283 161.508 265.752 203.139 234.446 234.456C203.139 265.752 161.508 282.989 117.228 282.989Z" fill="#0B315E"/>
<path d="M117.228 271.516C77.6912 271.516 38.165 256.469 8.07104 226.375L9.57043 224.875C68.9289 284.234 165.517 284.234 224.886 224.875C284.244 165.517 284.244 68.9186 224.886 9.56017L226.385 8.06079C286.573 68.2487 286.573 166.187 226.385 226.385C196.291 256.469 156.754 271.516 117.228 271.516Z" fill="#0B315E"/>
<path d="M117.228 260.18C79.0418 260.18 43.1417 245.303 16.1316 218.304L17.631 216.804C44.237 243.41 79.6054 258.053 117.217 258.053C154.84 258.053 190.209 243.4 216.804 216.804C243.41 190.198 258.053 154.83 258.053 117.218C258.053 79.595 243.399 44.2266 216.804 17.6312L218.303 16.1318C245.303 43.1313 260.18 79.042 260.18 117.228C260.18 155.415 245.303 191.315 218.303 218.325C191.314 245.303 155.414 260.18 117.228 260.18Z" fill="#0B315E"/>
<path d="M117.228 248.706C83.5399 248.706 49.8517 235.882 24.2028 210.233L25.7021 208.733C76.1706 259.202 158.286 259.202 208.754 208.733C259.223 158.265 259.223 76.1497 208.754 25.6813L210.253 24.1819C261.551 75.4798 261.551 158.945 210.253 210.233C184.605 235.882 150.916 248.706 117.228 248.706Z" fill="#0B315E"/>
<path d="M117.228 237.306C86.4642 237.306 55.6897 225.599 32.2632 202.172L33.7626 200.673C79.7861 246.696 154.659 246.696 200.672 200.673C246.696 154.649 246.696 79.7758 200.672 33.7629L202.172 32.2635C249.014 79.1059 249.014 155.34 202.172 202.183C178.766 225.599 147.992 237.306 117.228 237.306Z" fill="#0B315E"/>
<path d="M117.228 225.907C89.3778 225.907 61.5276 215.305 40.3342 194.112L41.8336 192.612C83.4015 234.18 151.044 234.18 192.612 192.612C212.752 172.472 223.844 145.695 223.844 117.218C223.844 88.7403 212.752 61.9641 192.612 41.8235L194.111 40.3241C214.656 60.8582 225.96 88.1767 225.96 117.218C225.96 146.259 214.645 173.578 194.111 194.112C172.918 215.305 145.078 225.907 117.228 225.907Z" fill="#0B315E"/>
<path d="M117.228 214.507C92.3023 214.507 67.3764 205.022 48.3949 186.04L49.8943 184.541C87.0172 221.664 147.418 221.664 184.541 184.541C221.664 147.418 221.664 87.0171 184.541 49.8942L186.04 48.3948C223.992 86.3472 223.992 148.098 186.04 186.051C167.08 205.011 142.154 214.507 117.228 214.507Z" fill="#0B315E"/>
</svg>
